<svg width="10" height="12" viewBox="0 0 10 12" fill="none" xmlns="http://www.w3.org/2000/svg">
<path d="M1.66666 5.14286H2.49999V4.28572H3.33332V6H2.49999V11.1429H3.33332V12H4.16666V9.42858H3.33332V6.85715H4.16666V8.57143H5.83332V6.85715H6.66666V9.42858H5.83332V12H6.66666V11.1429H7.49999V6H6.66666V4.28572H7.49999V5.14286H8.33332V3.42858H7.49999V2.57143H6.66666V1.71429H5.83332V0.857147H4.16666V1.71429H3.33332V2.57143H2.49999V3.42858H1.66666V5.14286ZM5.83332 2.57143V4.28572H4.16666V2.57143H5.83332Z" fill="#E7E9FF" fill-opacity="0.2"/>
<path d="M9.16668 5.14285H8.33334V6.85714H10V1.71428H8.33334V3.42857H9.16668V5.14285Z" fill="#E7E9FF" fill-opacity="0.2"/>
<path d="M0 6.85714H1.66667V5.14285H0.833333V3.42857H1.66667V1.71428H0V6.85714Z" fill="#E7E9FF" fill-opacity="0.2"/>
<path d="M10 0H8.33334V0.857143H10V0Z" fill="#E7E9FF" fill-opacity="0.2"/>
<path d="M1.66667 0H0V0.857143H1.66667V0Z" fill="#E7E9FF" fill-opacity="0.2"/>
</svg>
