<svg width="13" height="12" viewBox="0 0 13 12" fill="none" xmlns="http://www.w3.org/2000/svg">
<path d="M12.9979 1.89844C12.5361 2.09634 12.0084 2.22828 11.4806 2.29425C12.0084 1.9644 12.4702 1.43665 12.6681 0.842932C12.1403 1.17278 11.5466 1.37068 10.9529 1.50262C9.96336 0.447118 8.24816 0.381149 7.19266 1.37068C6.467 2.03037 6.20313 3.01991 6.40103 3.94347C4.22406 3.81153 2.17902 2.822 0.859641 1.10681C0.133983 2.36022 0.529796 3.8775 1.71724 4.66913C1.25545 4.66913 0.859641 4.60316 0.463827 4.40526V4.47122C0.463827 5.72463 1.38739 6.84611 2.6408 7.10998C2.24499 7.24192 1.84918 7.24192 1.45336 7.17595C1.78321 8.29742 2.83871 9.02308 3.96018 9.02308C2.83871 9.88068 1.38739 10.2765 0.00204468 10.1446C1.25545 10.9362 2.6408 11.332 4.09212 11.332C8.24816 11.266 11.6785 7.90161 11.6785 3.74557C11.6785 3.6796 11.6785 3.6796 11.6785 3.61363C11.6785 3.48169 11.6785 3.34975 11.6785 3.28378C12.2063 2.88797 12.6681 2.42619 12.9979 1.89844Z" fill="#F3F6FF" fill-opacity="0.2"/>
</svg>
