<svg width="18" height="17" viewBox="0 0 18 17" fill="none" xmlns="http://www.w3.org/2000/svg">
<path d="M1.20216 9.79036L1.26409 9.69301L4.99927 3.84981C5.05386 3.76423 5.18219 3.7731 5.22351 3.86602C5.84749 5.26452 6.38596 7.00376 6.1337 8.08654C6.02602 8.53203 5.73097 9.1354 5.39904 9.69301C5.35628 9.77415 5.30906 9.85382 5.2589 9.93053C5.23532 9.96591 5.19547 9.98659 5.15268 9.98659H1.31132C1.20803 9.98659 1.14757 9.87447 1.20216 9.79036Z" fill="#E7E9FF" fill-opacity="0.2"/>
<path d="M17.8511 10.8761V11.8011C17.8511 11.8542 17.8187 11.9014 17.7714 11.922C17.4823 12.046 16.4925 12.5003 16.0809 13.0727C15.0306 14.5346 14.2281 16.6249 12.4342 16.6249H4.95061C2.29824 16.6249 0.148895 14.4682 0.148895 11.807V11.7214C0.148895 11.6506 0.206425 11.5931 0.277227 11.5931H4.44905C4.53166 11.5931 4.59216 11.6698 4.58479 11.7509C4.55527 12.0224 4.60543 12.2997 4.73376 12.552C4.98159 13.055 5.49498 13.3692 6.04963 13.3692H8.1149V11.7568H6.07324C5.96849 11.7568 5.90655 11.6359 5.96702 11.5503C5.98916 11.5164 6.01424 11.4809 6.04079 11.4411C6.23402 11.1668 6.50989 10.7404 6.78426 10.2551C6.97162 9.9276 7.15308 9.57796 7.29912 9.22688C7.32863 9.16345 7.35221 9.09855 7.37582 9.03509C7.41565 8.923 7.45696 8.81824 7.48645 8.71352C7.51596 8.62501 7.53957 8.53207 7.56319 8.44502C7.63252 8.14704 7.662 7.83135 7.662 7.50385C7.662 7.37552 7.6561 7.24129 7.64429 7.11292C7.63842 6.97279 7.62071 6.83265 7.603 6.69251C7.5912 6.56858 7.56909 6.44615 7.54548 6.31782C7.51596 6.13046 7.47467 5.9446 7.42745 5.75724L7.41124 5.68644C7.37582 5.55811 7.34631 5.43565 7.30502 5.30732C7.18846 4.90458 7.05423 4.51218 6.91262 4.14487C6.861 3.99883 6.80197 3.85869 6.74297 3.71855C6.65593 3.50758 6.56742 3.31582 6.48628 3.13436C6.44499 3.05175 6.40957 2.97651 6.37419 2.89981C6.33434 2.81276 6.29305 2.72575 6.25173 2.64311C6.22224 2.57968 6.18829 2.52068 6.16468 2.46169L5.91246 1.99552C5.87704 1.93209 5.93604 1.85685 6.00537 1.87603L7.58383 2.30384H7.58826C7.5912 2.30384 7.59267 2.30531 7.59417 2.30531L7.80214 2.36284L8.03082 2.42774L8.1149 2.45135V1.51314C8.1149 1.06025 8.47778 0.692932 8.92624 0.692932C9.15048 0.692932 9.35405 0.784378 9.50009 0.933386C9.64613 1.08239 9.73761 1.28596 9.73761 1.51314V2.90571L9.90576 2.9529C9.91903 2.95734 9.93231 2.96324 9.94411 2.97208C9.98543 3.00306 10.0444 3.04881 10.1197 3.10484C10.1787 3.15207 10.2421 3.2096 10.3188 3.26859C10.4708 3.39105 10.6522 3.5489 10.8514 3.73032C10.9045 3.77608 10.9561 3.82327 11.0033 3.87049C11.26 4.10945 11.5477 4.38975 11.822 4.69954C11.8987 4.78655 11.974 4.87507 12.0507 4.96801C12.1274 5.06243 12.2085 5.15537 12.2794 5.24832C12.3723 5.37222 12.4726 5.50055 12.5596 5.63481C12.6009 5.69825 12.6481 5.76314 12.688 5.82658C12.8001 5.99623 12.8989 6.17178 12.9933 6.3473C13.0332 6.42844 13.0745 6.51696 13.1099 6.604C13.2146 6.83855 13.2972 7.07754 13.3503 7.31652C13.3666 7.36815 13.3783 7.42421 13.3842 7.47437V7.48614C13.402 7.55698 13.4079 7.63222 13.4138 7.70892C13.4374 7.95378 13.4256 8.19867 13.3724 8.44502C13.3503 8.54978 13.3208 8.64859 13.2854 8.75335C13.25 8.85366 13.2146 8.95838 13.1689 9.05723C13.0804 9.26227 12.9756 9.46734 12.8517 9.6591C12.8119 9.7299 12.7647 9.80514 12.7175 9.87594C12.6658 9.95118 12.6127 10.022 12.5655 10.0913C12.5006 10.1799 12.4313 10.2728 12.3605 10.3554C12.297 10.4424 12.2321 10.5295 12.1613 10.6062C12.0625 10.7227 11.9681 10.8334 11.8692 10.9396C11.8102 11.0089 11.7468 11.0797 11.6819 11.1431C11.6185 11.2139 11.5536 11.2774 11.4945 11.3364C11.3957 11.4352 11.3131 11.5119 11.2438 11.5754L11.0815 11.7244C11.0579 11.745 11.0269 11.7568 10.9944 11.7568H9.73761V13.3692H11.319C11.673 13.3692 12.0094 13.2438 12.2808 13.0137C12.3737 12.9325 12.7794 12.5814 13.2589 12.0519C13.2751 12.0342 13.2957 12.0209 13.3193 12.015L17.6874 10.7522C17.7685 10.7286 17.8511 10.7906 17.8511 10.8761Z" fill="#E7E9FF" fill-opacity="0.2"/>
</svg>
