<svg width="16" height="14" viewBox="0 0 16 14" fill="none" xmlns="http://www.w3.org/2000/svg">
<path d="M1.9 3.20001C1.9 3.00001 1.8 2.80001 1.7 2.70001L0.2 0.900005V0.600006H4.8L8.4 8.50001L11.6 0.600006H16V0.900005L14.7 2.10001C14.6 2.20001 14.5 2.30001 14.6 2.50001V11.5C14.6 11.6 14.6 11.8 14.7 11.9L15.9 13.1V13.4H9.6V13.1L10.9 11.8C11 11.7 11 11.6 11 11.4V4.10001L7.4 13.2H7L2.8 4.10001V10.2C2.8 10.5 2.9 10.7 3 10.9L4.7 12.9V13.2H0V12.9L1.7 10.9C1.9 10.7 2 10.5 1.9 10.2V3.20001Z" fill="#E7E9FF" fill-opacity="0.2"/>
</svg>
