<svg width="13" height="16" viewBox="0 0 13 16" fill="none" xmlns="http://www.w3.org/2000/svg">
<path d="M5.60616 6.98281C6.01814 6.98281 6.2928 7.24531 6.2928 7.63906C6.2928 8.03281 6.01814 8.29531 5.60616 8.29531C5.19418 8.29531 4.91953 8.03281 4.91953 7.63906C4.91953 7.24531 5.19418 6.98281 5.60616 6.98281ZM8.21536 6.98281C8.62734 6.98281 8.902 7.31094 8.83333 7.70469C8.83333 8.09844 8.49002 8.36094 8.07804 8.29531C7.73472 8.29531 7.46007 7.96719 7.46007 7.63906C7.52873 7.24531 7.80339 6.98281 8.21536 6.98281ZM11.5112 0.945312C12.3352 0.945312 12.9531 1.60156 12.9531 2.32344V2.38906V15.0547L11.4425 13.6766L10.6186 12.8891L9.65729 12.1016L10.0006 13.4141H2.03568C1.21172 13.4141 0.59375 12.7578 0.59375 11.9703V2.38906C0.59375 1.60156 1.21172 0.945312 2.03568 0.945312H11.5112ZM8.902 10.0672C9.79462 10.0672 10.5499 9.67344 11.0306 9.01719C11.0306 7.63906 10.6872 6.26094 10.0006 5.01406C9.4513 4.55469 8.76467 4.35781 8.00938 4.29219L7.94071 4.42344C8.55868 4.62031 9.17665 4.88281 9.72596 5.27656C9.03932 4.94844 8.35269 4.68594 7.5974 4.62031C7.11675 4.55469 6.63611 4.55469 6.15547 4.62031C6.08681 4.62031 6.0868 4.62031 6.01814 4.62031C5.46884 4.68594 4.91953 4.81719 4.43889 5.07969C4.16424 5.21094 4.02691 5.27656 4.02691 5.27656C4.57622 4.81719 5.19418 4.55469 5.88082 4.35781L5.81215 4.29219C5.12552 4.29219 4.43889 4.55469 3.82092 5.01406C3.20295 6.26094 2.85964 7.63906 2.79097 9.01719C3.27161 9.67344 4.09557 10.0672 4.91953 10.0672C4.91953 10.0672 5.19418 9.73906 5.40017 9.47656C4.91953 9.34531 4.43889 9.08281 4.16424 8.68906C4.2329 8.75469 4.30156 8.75469 4.37023 8.82031C4.37023 8.82031 4.43889 8.82031 4.43889 8.88594C4.57622 8.95156 4.7822 9.08281 4.98819 9.14844C5.33151 9.27969 5.67483 9.34531 6.01814 9.47656C6.63611 9.60781 7.25408 9.60781 7.87205 9.47656C8.21536 9.41094 8.55868 9.34531 8.902 9.14844C9.17665 9.01719 9.4513 8.88594 9.72596 8.75469C9.38264 9.14844 8.97066 9.47656 8.42135 9.60781C8.69601 9.80469 8.902 10.0672 8.902 10.0672Z" fill="#F3F6FF" fill-opacity="0.2"/>
</svg>
